<?xml version="1.0" encoding="iso-8859-1"?>
<!-- Generator: Adobe Illustrator 19.0.0, SVG Export Plug-In . SVG Version: 6.00 Build 0)  -->
<svg version="1.1" id="Layer_1" xmlns="http://www.w3.org/2000/svg" xmlns:xlink="http://www.w3.org/1999/xlink" x="0px" y="0px"
	 viewBox="0 0 488 488" style="enable-background:new 0 0 488 488;" xml:space="preserve">
<g transform="translate(0 -540.36)">
	<g>
		<g>
			<path d="M244.1,712.76c0-9.9-2.7-19.1-8-28.2c5.4-9.1,8-18.3,8-28.2c0-21.1-12.5-40.6-31.2-50.2c0.5-3,0.7-6.1,0.7-9.3
				c0-31.2-25.3-56.5-56.5-56.5c-16.2,0-27.5,7.5-35.5,15.6c-11.1-9.6-26-15.6-40-15.6c-15.2,0-29.5,5.9-40.4,16.7
				c-10.9,10.8-16.9,24.9-16.9,39.8c0,4.3,0.7,8.5,1.5,12.5c-16.1,10.3-25.8,27.7-25.8,47c0,9.9,2.8,19.8,7.9,28.3
				c-5.3,9.1-7.9,18.3-7.9,28.1c0,18.4,9.5,35.7,25.2,46.6c-0.5,3-0.8,6-0.8,9c0,31.2,25.7,56.5,57.3,56.5c14,0,28.9-6,40-15.6
				c8.1,8.1,19.4,15.6,35.5,15.6v0c15.2,0,29.3-5.8,40-16.4s16.5-24.8,16.5-40c0-1.8,0-3.9-0.2-6.1
				C232.1,752.96,244.1,733.96,244.1,712.76z M216.2,690.36c5.5,7.5,8,14.6,8,22.3c0,15.5-10.1,29.1-25.1,33.9
				c-2.6,0.9-4.8,2.8-6,5.3c-1.1,2.5-1.2,5.4-0.2,8c0.8,2,0.8,5.6,0.8,8.5c0,20.5-16,36.5-36.5,36.5c-10.3,0-18.4-5-27.1-16.6
				c-1.9-2.5-4.9-4-8-4v0c-3.1,0-6.1,1.5-8.1,4c-7.2,9.6-20.8,16.6-32.4,16.6c-20.6,0-37.3-16.4-37.3-36.5c0-3.5,0.6-7.1,1.8-10.6
				c1.6-4.6-0.5-9.7-4.8-12c-13.1-6.9-21.3-19.6-21.3-33.1c0-7.7,2.5-14.8,8-22.3c2.6-3.6,2.5-8.6-0.3-12.1c-5-6.3-7.7-14.1-7.7-22
				c0-14.2,8.3-26.8,21.6-32.8c4.5-2.1,6.9-7.1,5.5-11.9c-1.4-4.9-2.7-10-2.7-14.8c0-19.8,17.1-36.5,37.3-36.5
				c11.6,0,25.2,7,32.4,16.6c1.9,2.5,4.9,4,8,4c3.1,0,6.1-1.5,8-4c8.8-11.6,16.8-16.6,27.1-16.6c20.1,0,36.5,16.4,36.5,36.5
				c0,4.4-0.7,8.7-1.8,12.1c-0.8,2.5-0.6,5.3,0.6,7.7c1.2,2.4,3.4,4.2,5.9,5c14.9,4.8,25.8,19.4,25.8,34.7c0,7.7-2.5,14.8-8,22.3
				C213.6,682.06,213.6,686.86,216.2,690.36z"/>
			<path d="M202.9,947.36h-70.8v-68l13.4,13.4c2,2,4.5,2.9,7.1,2.9c2.6,0,5.1-1,7.1-2.9c3.9-3.9,3.9-10.2,0-14.1l-30.5-30.5
				c0,0,0,0-0.1-0.1c-0.2-0.2-0.4-0.4-0.7-0.6c-0.1-0.1-0.3-0.2-0.4-0.3s-0.3-0.2-0.4-0.3c-0.1-0.1-0.3-0.2-0.5-0.3
				c-0.1-0.1-0.3-0.2-0.4-0.2c-0.2-0.1-0.3-0.2-0.5-0.2c-0.1-0.1-0.3-0.1-0.4-0.2c-0.2-0.1-0.3-0.1-0.5-0.2
				c-0.2-0.1-0.3-0.1-0.5-0.2c-0.2,0-0.3-0.1-0.5-0.1c-0.2,0-0.3-0.1-0.5-0.1c-0.2,0-0.4-0.1-0.6-0.1c-0.1,0-0.3,0-0.4-0.1
				c-0.7-0.1-1.3-0.1-2,0c-0.1,0-0.3,0-0.4,0.1c-0.2,0-0.4,0-0.6,0.1c-0.2,0-0.3,0.1-0.5,0.1c-0.2,0-0.3,0.1-0.5,0.1
				c-0.2,0-0.3,0.1-0.5,0.2c-0.2,0.1-0.3,0.1-0.5,0.2c-0.1,0.1-0.3,0.1-0.4,0.2c-0.2,0.1-0.3,0.1-0.5,0.2c-0.1,0.1-0.3,0.1-0.4,0.2
				c-0.2,0.1-0.3,0.2-0.5,0.3c-0.1,0.1-0.3,0.2-0.4,0.3s-0.3,0.2-0.4,0.3c-0.2,0.2-0.4,0.4-0.7,0.6c0,0,0,0-0.1,0.1l-30.5,30.5
				c-3.9,3.9-3.9,10.2,0,14.1c3.9,3.9,10.2,3.9,14.1,0l13.4-13.4v78c0,5.5,4.5,10,10,10h80.8c5.5,0,10-4.5,10-10
				S208.5,947.36,202.9,947.36z"/>
			<path d="M488,859.76c0-21.4-12.2-40.6-31.1-50.2c0.5-3,0.7-6.1,0.7-9.2c0-15.2-5.9-29.4-16.5-40c-10.6-10.7-24.8-16.5-40-16.5
				c-16.2,0-27.5,7.5-35.5,15.6c-11.1-9.6-26-15.6-40-15.6c-31.6,0-57.3,25.3-57.3,56.5c0,4.3,0.6,8.2,1.4,11.8
				c-15.9,10.4-25.8,28.3-25.8,47.7c0,9.3,2.8,19.1,7.9,28c-5.1,8.4-7.9,18.2-7.9,27.6c0,19.2,9.5,36.5,25.2,46.9
				c-0.6,3-0.8,6.2-0.8,9.5c0,14.9,6,29,16.9,39.8c10.9,10.8,25.3,16.7,40.4,16.7c14,0,28.9-6,40-15.6c8.1,8.1,19.4,15.6,35.5,15.6
				c31.2,0,56.5-25.3,56.4-56.6c0-2,0-4-0.1-6.1c18.4-9.5,30.6-29.1,30.6-50.3c0-9.4-2.8-19.2-7.9-27.6
				C485.2,878.86,488,869.06,488,859.76z M460.5,894.16c4.9,6.1,7.7,13.9,7.7,21.2c0,15.7-10.3,30-25.1,34.7c-2.6,0.9-4.8,2.8-6,5.3
				c-1.1,2.5-1.2,5.4-0.2,8c0.8,1.9,0.8,4.4,0.8,8.5c0,20.1-16.4,36.5-36.5,36.5c-10.3,0-18.4-5-27.1-16.6c-1.9-2.5-4.9-4-8-4
				c-3.2,0-6.2,1.5-8,3.9c-7.2,9.6-20.8,16.6-32.4,16.6c-20.2,0-37.3-16.7-37.3-36.5c0-4.1,0.6-7.6,1.8-11.3
				c1.6-4.8-0.6-10-5.2-12.2c-13-6.2-21-18.8-21-32.9c0-7.3,2.8-15.1,7.7-21.2c2.8-3.5,2.9-8.5,0.3-12.1c-5.2-7.1-8-15-8-22.3
				c0-14.5,8.5-27.6,21.6-33.6c4.5-2.1,6.9-7.1,5.5-11.9c-1.5-5-2.7-9.3-2.7-14c0-20.1,16.8-36.5,37.3-36.5c11.6,0,25.2,7,32.4,16.6
				c1.9,2.5,4.9,4,8,4c3.1,0,6.1-1.5,8-4c8.8-11.6,16.8-16.6,27.1-16.6c20.5,0,36.5,16,36.5,36.5c0,4.4-0.7,8.7-1.8,12.1
				c-0.8,2.5-0.6,5.3,0.6,7.7s3.4,4.2,5.9,5c15.4,5,25.8,18.9,25.8,34.7c0,7.3-2.8,15.2-8,22.3
				C457.6,885.66,457.7,890.66,460.5,894.16z"/>
			<polygon points="366.1,987.76 366.1,987.76 366.1,987.76 			"/>
			<path d="M285.3,621.36h70.8v68l-13.4-13.4c-3.9-3.9-10.2-3.9-14.1,0c-3.9,3.9-3.9,10.2,0,14.1l30.5,30.5c0,0,0,0,0.1,0.1
				c0.2,0.2,0.4,0.4,0.7,0.6c0.1,0.1,0.3,0.2,0.4,0.3c0.1,0.1,0.3,0.2,0.4,0.3c0.1,0.1,0.3,0.2,0.4,0.3c0.1,0.1,0.3,0.2,0.4,0.2
				c0.2,0.1,0.3,0.1,0.5,0.2c0.1,0.1,0.3,0.1,0.4,0.2c0.1,0.1,0.3,0.1,0.5,0.2c0.2,0.1,0.3,0.1,0.5,0.2c0.2,0,0.3,0.1,0.5,0.1
				s0.3,0.1,0.5,0.1s0.4,0.1,0.5,0.1c0.1,0,0.3,0,0.4,0.1c0.3,0,0.7,0,1,0s0.7,0,1,0c0.1,0,0.3,0,0.4-0.1c0.2,0,0.4,0,0.5-0.1
				c0.2,0,0.3-0.1,0.5-0.1s0.3-0.1,0.5-0.1s0.3-0.1,0.5-0.2c0.2-0.1,0.3-0.1,0.5-0.2c0.1-0.1,0.3-0.1,0.4-0.2
				c0.2-0.1,0.3-0.1,0.5-0.2c0.1-0.1,0.3-0.2,0.4-0.2c0.2-0.1,0.3-0.2,0.4-0.3c0.1-0.1,0.3-0.2,0.4-0.3c0.1-0.1,0.3-0.2,0.4-0.3
				c0.2-0.2,0.4-0.4,0.7-0.6c0,0,0,0,0.1-0.1l30.5-30.5c3.5-3.9,3.5-10.2-0.4-14.1h0c-3.9-3.9-10.2-3.9-14.1,0l-13.4,13.4v-78
				c0-5.5-4.5-10-10-10h-80.8c-5.5,0-10,4.5-10,10S279.8,621.36,285.3,621.36z"/>
		</g>
	</g>
</g>
<g>
</g>
<g>
</g>
<g>
</g>
<g>
</g>
<g>
</g>
<g>
</g>
<g>
</g>
<g>
</g>
<g>
</g>
<g>
</g>
<g>
</g>
<g>
</g>
<g>
</g>
<g>
</g>
<g>
</g>
</svg>
